<?xml version="1.0" standalone="no"?>
<!DOCTYPE svg PUBLIC "-//W3C//DTD SVG 20010904//EN"
 "http://www.w3.org/TR/2001/REC-SVG-20010904/DTD/svg10.dtd">
<svg version="1.0" xmlns="http://www.w3.org/2000/svg"
 width="90.000000pt" height="90.000000pt" viewBox="0 0 90.000000 90.000000"
 preserveAspectRatio="xMidYMid meet">

<g transform="translate(0.000000,90.000000) scale(0.100000,-0.100000)"
fill="#000000" stroke="none">
<path d="M185 739 c-31 -9 -55 -33 -55 -56 0 -18 47 -16 54 3 4 10 15 14 33
12 22 -2 28 -8 28 -28 0 -20 -6 -26 -27 -28 -36 -4 -40 -42 -5 -42 27 0 47
-17 47 -41 0 -30 -58 -40 -80 -14 -13 15 -60 21 -60 7 0 -20 34 -52 65 -61 44
-12 101 3 115 29 17 31 12 68 -11 84 -20 14 -20 16 -5 31 9 9 16 29 16 44 0
49 -55 77 -115 60z"/>
<path d="M424 738 c-92 -24 -98 -206 -9 -244 36 -15 94 -4 114 20 24 28 24 79
1 109 -25 32 -82 37 -112 10 -17 -15 -18 -15 -18 3 0 46 65 87 85 54 7 -12 55
-14 55 -2 0 36 -66 64 -116 50z m70 -150 c15 -24 -3 -52 -36 -56 -32 -4 -52
20 -44 53 6 22 12 26 38 23 17 -2 36 -11 42 -20z"/>
<path d="M653 738 c-42 -11 -67 -57 -67 -123 0 -66 25 -112 67 -123 74 -20
127 32 127 123 0 91 -53 143 -127 123z m57 -53 c18 -22 23 -96 8 -125 -17 -31
-48 -38 -65 -14 -16 21 -17 107 -3 135 13 23 43 25 60 4z"/>
<path d="M60 430 c-42 -42 -38 -105 10 -150 37 -34 112 -58 210 -66 75 -6 79
-8 82 -32 2 -14 8 -27 14 -29 14 -5 114 85 114 102 0 17 -100 107 -114 102 -6
-2 -12 -16 -14 -32 l-4 -28 -79 7 c-89 7 -184 38 -193 63 -4 8 -4 31 0 49 7
39 2 42 -26 14z"/>
<path d="M815 412 c5 -30 2 -42 -12 -55 -30 -26 -98 -46 -184 -53 l-79 -7 0
-43 0 -44 38 0 c204 0 332 93 277 199 -8 16 -22 31 -31 35 -13 5 -15 0 -9 -32z"/>
</g>
</svg>
